<svg xmlns="http://www.w3.org/2000/svg" enable-background="new 0 0 68 68" viewBox="0 0 68 68"
	id="portfolio">
	<polygon fill="#FFF" points="63.612 14.493 63.612 41.747 37.53 41.747 37.53 8.597 56.758 8.597"></polygon>
	<rect width="18.082" height="13.164" x="41.53" y="24.584" fill="#FFF"></rect>
	<polygon fill="#8F9FFF" points="63.612 14.493 56.758 14.493 56.758 8.597"></polygon>
	<path fill="#FFF"
		d="M44.8347015,13.7734766l-19.0198708,0.021368
			c-1.6018925,0.0018005-2.8990231,1.3018494-2.8972225,2.9037409v0.0000057
			c0.0017986,1.6018925,1.3018475,2.8990231,2.9037399,2.8972244l19.0198689-0.0213699l4.7142258-2.8897915L44.8347015,13.7734766z"></path>
	<path fill="#8F9FFF"
		d="M25.8148117,13.7948503l1.569994-0.0017757v5.8009577l-1.5634689,0.0017757
			c-1.6018581,0.0017757-2.9019184-1.2953548-2.9037418-2.8972149
			C22.9158192,15.0966854,24.2129517,13.7966261,25.8148117,13.7948503z"></path>
	<line x1="44.692" x2="44.692" y1="13.773" y2="19.596" fill="#FFF"></line>
	<path fill="#FFF"
		d="M42.2815094,43.0725136v12.6558838c0,2.0364914-1.6509018,3.6873932-3.6873932,3.6873932h-27.737236
		c-2.0364914,0-3.6873941-1.6509018-3.6873941-3.6873932V43.0725136"></path>
	<g>
		<path fill="#FFF"
			d="M39.9685783,30.9095898H9.4884777c-1.9111943,0-3.4605718,1.5493755-3.4605718,3.4605694v8.7023315
			h37.4012451v-8.7023315C43.4291496,32.4589653,41.8798332,30.9095898,39.9685783,30.9095898z"></path>
		<path fill="#8F9FFF"
			d="M31.7593727 27.7590504v3.1507854h-2.9987888v-2.586298h-8.0701752v2.586298h-2.9987888v-3.1507854c0-1.067173.8643341-1.9227314 1.9315605-1.9227314h10.2134609C30.9038143 25.836319 31.7593727 26.6918774 31.7593727 27.7590504zM12.305006 41.1877251v3.8718262c0 1.0814209.8766479 1.9581299 1.9580688 1.9581299h.2491455c1.0814209 0 1.9580688-.876709 1.9580688-1.9581299v-3.8718262H12.305006zM32.9867668 41.1877251v3.8718262c0 1.0814209.8766479 1.9581299 1.9580688 1.9581299h.2491455c1.0814209 0 1.9580688-.876709 1.9580688-1.9581299v-3.8718262H32.9867668z"></path>
	</g>
	<g>
		<path fill="#2A44E2"
			d="M65.709549,44.8181572c-0.2666016-0.0839844-0.5439453,0.0644531-0.6264648,0.328125
			c-2.6069374,8.3095703-8.5219765,15.4375-16.2280312,19.5556679c-0.2431641,0.1308594-0.3354492,0.4335938-0.2050781,0.6767578
			c0.1306992,0.2457657,0.4354897,0.3345184,0.6767578,0.2060547c7.9350586-4.2412148,14.0258789-11.5810585,16.710453-20.1396523
			C66.1197052,45.1814384,65.9732208,44.901165,65.709549,44.8181572z"></path>
		<path fill="#2A44E2"
			d="M62.7780876,42.2478447h0.833313c0.2763672,0,0.5000038-0.2236328,0.5000038-0.5V14.5921459
			c0.058403-0.280654,0.7609711,0.0651712-7.3530312-6.4951782H47.155407
			c-4.2052002-2.191895-8.9710083-3.4497075-14.0322876-3.4497075c-16.8178692,0-30.4999981,13.6826172-30.4999981,30.4999981
			c0,5.5048828,1.4831543,10.6622314,4.0463867,15.1246338v5.4564209c0,2.3085938,1.8784184,4.1875,4.1875005,4.1875h4.5163574
			c5.005249,3.597168,11.1292725,5.7314491,17.749754,5.7314491C47.4958,65.6472626,59.5687981,55.6505547,62.7780876,42.2478447z
			 M43.9292717,41.2478447v-3h15.6821289c0.2763672,0,0.5-0.2236328,0.5-0.5V24.5837841c0-0.2763672-0.2236328-0.5-0.5-0.5
			H41.5293694c-0.2763672,0-0.5,0.2236328-0.5,0.5v5.9887695c-0.3399048-0.0952759-0.6911011-0.1625977-1.0610352-0.1625977
			h-1.9384766V20.0817089l6.5569458-0.0073853c0.4239922,0.0939732,0.530323-0.1113434,5.2296753-2.9631958
			c0.1479492-0.0908203,0.2382813-0.2519531,0.2387695-0.4257813c0-0.1733398-0.0898438-0.3349609-0.2373047-0.4262695
			c-4.9055023-2.9949245-4.7228889-2.9858398-4.9833984-2.9858398h-0.0004883l-0.1412964,0.0001831l-0.0007935-0.0001831
			c0,0-0.0004883,0.0001831-0.0007935,0.0001831l-6.6613159,0.0075073v-4.18396h18.2285156v5.3959961
			c0,0.2763672,0.2236328,0.5,0.5,0.5h6.3530273v26.2548809H43.9292717z M37.6519279,42.5720634v-1.3847656
			c0-0.2763672-0.2236328-0.5-0.5-0.5h-4.1650391c-0.2763672,0-0.5,0.2236328-0.5,0.5v1.3847656H16.9702892v-1.3847656
			c0-0.2763672-0.2236328-0.5-0.5-0.5h-4.1655273c-0.2763672,0-0.5,0.2236328-0.5,0.5v1.3847656H6.5279059V34.369915
			c0-1.6318359,1.328125-2.959959,2.9604497-2.959959h8.203125h2.9990234h8.0703125h2.9985352h8.2089825
			c1.6328125,0,2.9609375,1.3281231,2.9609375,2.959959v8.2021484H37.6519279z M36.6519279,41.6872978v3.3720703
			c0,0.8037109-0.6542969,1.4580078-1.4580078,1.4580078h-0.2490234c-0.8037109,0-1.4580078-0.6542969-1.4580078-1.4580078
			v-3.3720703H36.6519279z M15.9702892,41.6872978v3.3720703c0,0.8037109-0.6542969,1.4580078-1.4580078,1.4580078H14.263258
			c-0.8041992,0-1.4584961-0.6542969-1.4584961-1.4580078v-3.3720703H15.9702892z M31.2593517,30.409956h-1.9985352v-2.0859375
			c0-0.2763672-0.2236328-0.5-0.5-0.5h-8.0703125c-0.2763672,0-0.5,0.2236328-0.5,0.5v2.0859375h-1.9990234v-2.6513672
			c0-0.7841797,0.6420898-1.421875,1.4316406-1.421875h10.2133789c0.784668,0,1.4228516,0.6376953,1.4228516,1.421875V30.409956z
			 M21.1905041,30.409956v-1.5859375h7.0703125v1.5859375H21.1905041z M42.0293694,31.0045605v-5.9207764h17.0820313v12.1640606
			H43.9292717V34.369915C43.9292717,32.9434624,43.1640739,31.7017651,42.0293694,31.0045605z M23.4175549,16.6980419
			c-0.0020142-1.3214998,1.0659561-2.4012918,2.3979492-2.4033203L26.88484,14.293745v4.8005371l-1.0639648,0.0012207
			c-0.1001606,0-0.1030903,0-0.0029297,0C24.4956799,19.0955029,23.4190197,18.0203075,23.4175549,16.6980419z M27.88484,17.1848583
			h6.6079082c0.2763672,0,0.5-0.2236328,0.5-0.5s-0.2236328-0.5-0.5-0.5H27.88484v-1.8925171l16.307127-0.0185547v4.8007813
			L27.88484,19.0931835V17.1848583z M45.191967,14.5810375l3.4086914,2.102356l-3.4086914,2.0892334V14.5810375z
			 M62.2635002,13.9929638h-5.005127V9.6868114C57.3777199,9.7894888,62.4289207,14.1352816,62.2635002,13.9929638z
			 M3.6231208,35.1472588c0-16.2665997,13.2333984-29.4999981,29.4999981-29.4999981
			c4.1727295,0,8.1408081,0.8796997,11.7418823,2.4497075h-7.335144c-0.2763672,0-0.5,0.2236328-0.5,0.5v4.6850586
			l-11.2153301,0.0126953c-1.8754883,0.0024414-3.3994141,1.5292969-3.3969727,3.4042969
			c0.0024414,1.8730469,1.527832,3.3964844,3.4003906,3.3964844h0.0039063l11.2080059-0.0126343V30.409956h-4.7705078v-2.6513672
			c0-1.3349609-1.0869122-2.421875-2.4228497-2.421875H19.6231213c-1.3408203,0-2.4316406,1.0869141-2.4316406,2.421875v2.6513672
			h-7.703125c-2.1835942,0-3.9604497,1.7763653-3.9604497,3.959959v8.7021484c0,0.2763672,0.2236328,0.5,0.5,0.5h0.6416016
			v4.6005859C4.724195,44.2417412,3.6231208,39.8223076,3.6231208,35.1472588z M7.6695075,55.7283134v-12.15625h4.1352544v1.4873047
			c0,1.3554688,1.1030273,2.4580078,2.4584961,2.4580078h0.2490234c1.3554688,0,2.4580078-1.1025391,2.4580078-2.4580078v-1.4873047
			h15.5165997v1.4873047c0,1.3554688,1.1025391,2.4580078,2.4580078,2.4580078h0.2490234
			c1.3554688,0,2.4580078-1.1025391,2.4580078-2.4580078v-1.4873047h4.1293945v12.15625
			c0,1.7578125-1.4296875,3.1875-3.1870117,3.1875H10.857008C9.0991955,58.9158134,7.6695075,57.4861259,7.6695075,55.7283134z
			 M38.5943108,59.9158134c2.3085938,0,4.1870117-1.8789063,4.1870117-4.1875v-12.15625h0.6479492
			c0.2763672,0,0.5-0.2236328,0.5-0.5v-0.8242188h17.8161011c-3.187561,12.8458252-14.8044434,22.3994179-28.6222534,22.3994179
			c-5.8879375,0-11.3690166-1.7474403-15.9782696-4.7314491H38.5943108z"></path>
		<path fill="#2A44E2"
			d="M14.9141369 54.9158134H11.669508v-3.0341797c0-.2763672-.2236328-.5-.5-.5s-.5.2236328-.5.5v3.5341797c0 .2763672.2236328.5.5.5h3.7446289c.2763672 0 .5-.2236328.5-.5S15.1905041 54.9158134 14.9141369 54.9158134zM54.188549 5.6472602h1.0556641c.2763672 0 .5-.2236328.5-.5s-.2236328-.5-.5-.5H54.188549c-.2763672 0-.5.2236328-.5.5S53.9121819 5.6472602 54.188549 5.6472602zM48.2227287 5.6472602h3.5786133c.2763672 0 .5-.2236328.5-.5s-.2236328-.5-.5-.5h-3.5786133c-.2763672 0-.5.2236328-.5.5S47.9463615 5.6472602 48.2227287 5.6472602zM45.6441154 54.7195244c.2763672 0 .5-.2236328.5-.5v-1.5693359c0-.2763672-.2236328-.5-.5-.5s-.5.2236328-.5.5v1.5693359C45.1441154 54.4958916 45.3677483 54.7195244 45.6441154 54.7195244zM45.6441154 50.5808525c.2763672 0 .5-.2236328.5-.5v-4.5361328c0-.2763672-.2236328-.5-.5-.5s-.5.2236328-.5.5v4.5361328C45.1441154 50.3572197 45.3677483 50.5808525 45.6441154 50.5808525zM2.8911872 20.7576122c2.6352539-5.512207 6.7348638-10.2060547 11.8549805-13.5756836.2304688-.1513672.2944336-.4614258.1425781-.6923828-.1508789-.2299805-.4604492-.2949219-.6923828-.1425781C8.9243908 9.816206 4.7027106 14.6501904 1.9888434 20.3259716c-.1191406.2490234-.0136719.5478516.2353516.6669922C2.4759514 21.1126804 2.7731795 21.0043545 2.8911872 20.7576122zM18.4746838 5.0574164c1.378418-.6723633 2.8164063-1.2543945 4.2729492-1.7299805.262207-.0854492.4057617-.3676758.3203125-.6303711-.0854492-.2617188-.3657227-.4047852-.6308594-.3198242-1.5.4892578-2.980957 1.0888672-4.4008789 1.7817383-.2480469.1210938-.3510742.4204102-.2299805.668457C17.9288902 5.0796943 18.2323875 5.1768818 18.4746838 5.0574164z"></path>
	</g>
</svg>