<svg xmlns="http://www.w3.org/2000/svg" xml:space="preserve" width="72" height="72" id="portfolio">
  <path d="M61.568 17H46.501v-6.785C46.501 6.556 43.849 4 39.866 4h-8.138C27.615 4 25.5 6.613 25.5 10.214V17H10.432A6.933 6.933 0 0 0 3.5 23.932v37.136a6.934 6.934 0 0 0 6.932 6.933h51.136a6.933 6.933 0 0 0 6.932-6.933h.001V23.932A6.933 6.933 0 0 0 61.568 17zM29.5 10.215C29.5 8.063 31.41 8 31.727 8h7.136c1.263 0 3.637.384 3.637 2.214V17h-13v-6.785zM61.568 64H10.432A2.932 2.932 0 0 1 7.5 61.068V43h3.13a1 1 0 1 0 0-2H7.5V23.932A2.932 2.932 0 0 1 10.432 21h51.136a2.932 2.932 0 0 1 2.932 2.932h.001V41H42.499v-.93a4.069 4.069 0 0 0-4.069-4.069h-4.86a4.069 4.069 0 0 0-4.07 4.069V41H16.631a1 1 0 1 0 0 2H29.5v1.93A4.07 4.07 0 0 0 33.57 49h4.86a4.07 4.07 0 0 0 4.07-4.07h-.001V43h22.002v18.068A2.932 2.932 0 0 1 61.568 64zM40.5 40.07l-.001 4.859a2.07 2.07 0 0 1-2.069 2.07h-4.86a2.07 2.07 0 0 1-2.07-2.07V40.07c0-1.143.926-2.069 2.07-2.069h4.86c1.143 0 2.07.925 2.07 2.069z"></path>
</svg>
